<svg id="SvgjsSvg1043" xmlns="http://www.w3.org/2000/svg" version="1.1" xmlns:xlink="http://www.w3.org/1999/xlink" xmlns:svgjs="http://svgjs.com/svgjs" width="39" height="41" viewBox="0 0 39 41"><title>Shape</title><desc>Created with Avocode.</desc><defs id="SvgjsDefs1044"></defs><path id="SvgjsPath1045" d="M709.48 1081C708.5500000000001 1081 707.78 1081.77 707.78 1082.71L707.78 1084.42L702.6999999999999 1084.42C702.2499999999999 1084.42 701.8 1084.5800000000002 701.4799999999999 1084.9C701.1599999999999 1085.22 700.9999999999999 1085.68 700.9999999999999 1086.13L700.9999999999999 1120.2900000000002C700.9999999999999 1120.7400000000002 701.1599999999999 1121.1900000000003 701.4799999999999 1121.5100000000002C701.8 1121.8400000000001 702.2499999999999 1122.0000000000002 702.6999999999999 1122.0000000000002L738.3 1122.0000000000002C738.75 1122.0000000000002 739.1999999999999 1121.8400000000001 739.52 1121.5100000000002C739.84 1121.1900000000003 740 1120.7400000000002 740 1120.2900000000002L740 1086.13C740 1085.68 739.84 1085.22 739.52 1084.9C739.1999999999999 1084.5800000000002 738.75 1084.42 738.3 1084.42L733.2199999999999 1084.42L733.2199999999999 1082.71C733.2199999999999 1081.77 732.4499999999999 1081 731.5199999999999 1081L729.8299999999998 1081C728.8999999999999 1081 728.1299999999998 1081.77 728.1299999999998 1082.71L728.1299999999998 1084.42L712.8699999999998 1084.42L712.8699999999998 1082.71C712.8699999999998 1081.77 712.0999999999998 1081 711.1699999999997 1081ZM702.7 1093.81L738.3000000000001 1093.81L738.3000000000001 1120.29L702.7 1120.29ZM707.78 1097.23L707.78 1116.8700000000001L733.22 1116.8700000000001L733.22 1097.23ZM702.7 1086.13L707.7800000000001 1086.13L707.7800000000001 1087.8300000000002C707.7800000000001 1088.7700000000002 708.5500000000001 1089.5400000000002 709.4800000000001 1089.5400000000002L711.1700000000002 1089.5400000000002C712.1000000000001 1089.5400000000002 712.8700000000002 1088.7700000000002 712.8700000000002 1087.8300000000002L712.8700000000002 1086.13L728.1300000000002 1086.13L728.1300000000002 1087.8300000000002C728.1300000000002 1088.7700000000002 728.9000000000002 1089.5400000000002 729.8300000000003 1089.5400000000002L731.5200000000003 1089.5400000000002C732.4500000000003 1089.5400000000002 733.2200000000004 1088.7700000000002 733.2200000000004 1087.8300000000002L733.2200000000004 1086.13L738.3000000000004 1086.13L738.3000000000004 1092.1000000000001L702.7000000000004 1092.1000000000001ZM709.48 1098.94L713.72 1098.94L713.72 1103.21L709.48 1103.21ZM709.48 1104.92L713.72 1104.92L713.72 1109.19L709.48 1109.19ZM721.35 1104.92L725.59 1104.92L725.59 1109.19L721.35 1109.19ZM709.48 1110.9L713.72 1110.9L713.72 1115.17L709.48 1115.17ZM721.35 1110.9L725.59 1110.9L725.59 1115.17L721.35 1115.17ZM721.35 1098.94L725.59 1098.94L725.59 1103.21L721.35 1103.21ZM715.41 1104.92L719.65 1104.92L719.65 1109.19L715.41 1109.19ZM727.28 1098.94L731.52 1098.94L731.52 1103.21L727.28 1103.21ZM727.28 1104.92L731.52 1104.92L731.52 1109.19L727.28 1109.19ZM715.41 1098.94L719.65 1098.94L719.65 1103.21L715.41 1103.21ZM715.41 1110.9L719.65 1110.9L719.65 1115.17L715.41 1115.17ZM709.48 1082.71L711.1700000000001 1082.71L711.1700000000001 1087.83L709.48 1087.83ZM729.83 1082.71L731.5200000000001 1082.71L731.5200000000001 1087.83L729.83 1087.83ZM727.28 1110.9L731.52 1110.9L731.52 1115.17L727.28 1115.17Z " fill="#1a416a" fill-opacity="1" transform="matrix(1,0,0,1,-701,-1081)"></path></svg>