<svg id="SvgjsSvg1009" xmlns="http://www.w3.org/2000/svg" version="1.1" xmlns:xlink="http://www.w3.org/1999/xlink" xmlns:svgjs="http://svgjs.com/svgjs" width="45" height="38" viewBox="0 0 45 38"><title>crs</title><desc>Created with Avocode.</desc><defs id="SvgjsDefs1010"></defs><path id="SvgjsPath1011" d="M571.36943 3242.92805C572.0531599999999 3242.87315 572.98811 3244.28215 573.78593 3245.75744C574.86486 3248.92136 575.52446 3251.86652 575.52446 3251.86652C575.52446 3251.86652 580.98822 3237.95991 573.4411299999999 3231.39932C559.10165 3218.9342 539.3083499999999 3241.70379 539.3083499999999 3241.70379L539.7729199999999 3241.65713C539.0567799999999 3242.16086 538.6522899999999 3242.4585 538.6522899999999 3242.4585L561.8575499999998 3259.96725C567.7948799999998 3253.13713 566.8982899999999 3243.25489 571.3694399999998 3242.92806Z " fill="#ff3d00" fill-opacity="1" transform="matrix(1,0,0,1,-535,-3227)"></path><path id="SvgjsPath1012" d="M571.1772 3243.1187C571.85437 3243.07135 572.78932 3244.48034 573.58714 3245.95563C572.0106 3241.3521299999998 569.52944 3236.28026 566.8477399999999 3238.98414C561.47565 3245.48411 562.9038199999999 3249.58763 557.1305 3256.22907C556.1195799999999 3257.78831 556.03616 3259.33231 556.46224 3260.76271C558.53099 3261.66003 560.36632 3261.6522 561.6587499999999 3260.16542C567.5960799999999 3253.3352999999997 566.7060499999999 3243.44551 571.1772 3243.1186799999996Z " fill="#dd2c00" fill-opacity="1" transform="matrix(1,0,0,1,-535,-3227)"></path><path id="SvgjsPath1013" d="M536.69699 3243.18355L541.2894 3237.90058L564.6854 3258.23841L560.09299 3263.52138Z " fill="#cfd8dc" fill-opacity="1" transform="matrix(1,0,0,1,-535,-3227)"></path><path id="SvgjsPath1014" d="M542.47079 3239.59006C543.01429 3238.96484 543.96172 3238.89859 544.5869399999999 3239.44208C545.2121599999999 3239.98558 545.2784099999999 3240.9330099999997 544.7349199999999 3241.5582299999996C544.1914199999999 3242.1834499999995 543.2439899999998 3242.2497 542.6187699999999 3241.70621C541.9935499999999 3241.1627099999996 541.9273 3240.21528 542.47079 3239.59006Z " fill="#cfd8dc" fill-opacity="1" transform="matrix(1,0,0,1,-535,-3227)"></path><path id="SvgjsPath1015" d="M540.20666 3237.62188C540.75016 3236.9966600000002 541.6975900000001 3236.93041 542.32281 3237.4739C542.94803 3238.0174 543.01428 3238.96483 542.47079 3239.59005C541.92729 3240.2152699999997 540.9798599999999 3240.28152 540.35464 3239.73803C539.72942 3239.1945299999998 539.66317 3238.2471 540.20666 3237.62188Z " fill="#cfd8dc" fill-opacity="1" transform="matrix(1,0,0,1,-535,-3227)"></path><path id="SvgjsPath1016" d="M544.73492 3241.55823C545.27842 3240.93301 546.22585 3240.86676 546.8510699999999 3241.41025C547.47629 3241.95375 547.5425399999999 3242.90118 546.9990499999999 3243.5263999999997C546.4555499999999 3244.1516199999996 545.5081199999998 3244.21787 544.8829 3243.67438C544.2576799999999 3243.1308799999997 544.19143 3242.18345 544.73492 3241.55823Z " fill="#cfd8dc" fill-opacity="1" transform="matrix(1,0,0,1,-535,-3227)"></path><path id="SvgjsPath1017" d="M546.99905 3243.52641C547.54255 3242.90119 548.4899800000001 3242.8349399999997 549.1152 3243.3784299999998C549.74042 3243.92193 549.8066699999999 3244.8693599999997 549.2631799999999 3245.4945799999996C548.7196799999999 3246.1197999999995 547.7722499999999 3246.18605 547.14703 3245.64256C546.52181 3245.0990599999996 546.45556 3244.15163 546.99905 3243.52641Z " fill="#cfd8dc" fill-opacity="1" transform="matrix(1,0,0,1,-535,-3227)"></path><path id="SvgjsPath1018" d="M549.26318 3245.49459C549.80668 3244.86937 550.7541100000001 3244.8031199999996 551.37933 3245.3466099999996C552.00455 3245.89011 552.0708 3246.8375399999995 551.5273099999999 3247.4627599999994C550.98381 3248.0879799999993 550.0363799999999 3248.1542299999996 549.41116 3247.6107399999996C548.78594 3247.0672399999994 548.71969 3246.1198099999997 549.26318 3245.49459Z " fill="#cfd8dc" fill-opacity="1" transform="matrix(1,0,0,1,-535,-3227)"></path><path id="SvgjsPath1019" d="M538.53444 3244.11831C539.07794 3243.49309 540.0253700000001 3243.4268399999996 540.65059 3243.9703299999996C541.27581 3244.51383 541.34206 3245.4612599999996 540.7985699999999 3246.0864799999995C540.2550699999999 3246.7116999999994 539.3076399999999 3246.7779499999997 538.68242 3246.2344599999997C538.0572 3245.6909599999994 537.99095 3244.7435299999997 538.53444 3244.11831Z " fill="#cfd8dc" fill-opacity="1" transform="matrix(1,0,0,1,-535,-3227)"></path><path id="SvgjsPath1020" d="M540.79856 3246.08649C541.34206 3245.4612700000002 542.28949 3245.39502 542.9147099999999 3245.93851C543.5399299999999 3246.48201 543.6061799999999 3247.42944 543.0626899999999 3248.05466C542.5191899999999 3248.6798799999997 541.5717599999998 3248.74613 540.9465399999999 3248.20264C540.3213199999999 3247.6591399999998 540.2550699999999 3246.71171 540.79856 3246.08649Z " fill="#cfd8dc" fill-opacity="1" transform="matrix(1,0,0,1,-535,-3227)"></path><path id="SvgjsPath1021" d="M543.06269 3248.05467C543.60619 3247.42945 544.55362 3247.3632 545.1788399999999 3247.90669C545.8040599999999 3248.45019 545.8703099999999 3249.3976199999997 545.3268199999999 3250.0228399999996C544.7833199999999 3250.6480599999995 543.8358899999998 3250.71431 543.2106699999999 3250.17082C542.5854499999999 3249.6273199999996 542.5192 3248.67989 543.06269 3248.05467Z " fill="#cfd8dc" fill-opacity="1" transform="matrix(1,0,0,1,-535,-3227)"></path><path id="SvgjsPath1022" d="M545.32682 3250.02285C545.87032 3249.39763 546.81775 3249.3313799999996 547.44297 3249.8748699999996C548.06819 3250.41837 548.1344399999999 3251.3657999999996 547.5909499999999 3251.9910199999995C547.0474499999999 3252.6162399999994 546.1000199999999 3252.6824899999997 545.4748 3252.1389999999997C544.84958 3251.5954999999994 544.78333 3250.6480699999997 545.32682 3250.02285Z " fill="#cfd8dc" fill-opacity="1" transform="matrix(1,0,0,1,-535,-3227)"></path><path id="SvgjsPath1023" d="M551.52731 3247.46277C552.07081 3246.83755 553.0182400000001 3246.7713 553.64346 3247.31479C554.26868 3247.85829 554.33493 3248.80572 553.79144 3249.4309399999997C553.24794 3250.0561599999996 552.3005099999999 3250.12241 551.67529 3249.57892C551.05007 3249.0354199999997 550.98382 3248.08799 551.52731 3247.46277Z " fill="#cfd8dc" fill-opacity="1" transform="matrix(1,0,0,1,-535,-3227)"></path><path id="SvgjsPath1024" d="M547.59095 3251.99102C548.13445 3251.3658 549.0818800000001 3251.2995499999997 549.7071 3251.8430399999997C550.33232 3252.38654 550.39857 3253.3339699999997 549.8550799999999 3253.9591899999996C549.3115799999999 3254.5844099999995 548.3641499999999 3254.65066 547.73893 3254.1071699999998C547.11371 3253.5636699999995 547.04746 3252.61624 547.59095 3251.99102Z " fill="#cfd8dc" fill-opacity="1" transform="matrix(1,0,0,1,-535,-3227)"></path><path id="SvgjsPath1025" d="M549.85508 3253.9592C550.39858 3253.33398 551.3460100000001 3253.2677299999996 551.97123 3253.8112199999996C552.59645 3254.35472 552.6627 3255.3021499999995 552.11921 3255.9273699999994C551.57571 3256.5525899999993 550.6282799999999 3256.6188399999996 550.00306 3256.0753499999996C549.37784 3255.5318499999994 549.31159 3254.5844199999997 549.85508 3253.9592Z " fill="#cfd8dc" fill-opacity="1" transform="matrix(1,0,0,1,-535,-3227)"></path><path id="SvgjsPath1026" d="M560.87977 3259.56778C561.42327 3258.94256 562.3707 3258.8763099999996 562.99592 3259.4197999999997C563.62114 3259.9633 563.6873899999999 3260.9107299999996 563.1438999999999 3261.5359499999995C562.6003999999999 3262.1611699999994 561.6529699999999 3262.2274199999997 561.02775 3261.6839299999997C560.40253 3261.1404299999995 560.33628 3260.1929999999998 560.87977 3259.56778Z " fill="#cfd8dc" fill-opacity="1" transform="matrix(1,0,0,1,-535,-3227)"></path><path id="SvgjsPath1027" d="M553.79143 3249.43094C554.33493 3248.8057200000003 555.28236 3248.73947 555.9075799999999 3249.28296C556.5328 3249.82646 556.5990499999999 3250.77389 556.0555599999999 3251.39911C555.5120599999999 3252.0243299999997 554.5646299999999 3252.09058 553.93941 3251.54709C553.3141899999999 3251.00359 553.24794 3250.05616 553.79143 3249.43094Z " fill="#cfd8dc" fill-opacity="1" transform="matrix(1,0,0,1,-535,-3227)"></path><path id="SvgjsPath1028" d="M552.11921 3255.92738C552.66271 3255.30216 553.61014 3255.23591 554.2353599999999 3255.7794C554.8605799999999 3256.3229 554.9268299999999 3257.27033 554.3833399999999 3257.8955499999997C553.8398399999999 3258.5207699999996 552.8924099999998 3258.58702 552.2671899999999 3258.04353C551.6419699999999 3257.5000299999997 551.5757199999999 3256.5526 552.11921 3255.92738Z " fill="#cfd8dc" fill-opacity="1" transform="matrix(1,0,0,1,-535,-3227)"></path><path id="SvgjsPath1029" d="M556.05556 3251.39912C556.59906 3250.7739 557.5464900000001 3250.70765 558.17171 3251.25114C558.79693 3251.79464 558.8631799999999 3252.74207 558.3196899999999 3253.3672899999997C557.7761899999999 3253.9925099999996 556.8287599999999 3254.05876 556.20354 3253.51527C555.57832 3252.9717699999997 555.51207 3252.02434 556.05556 3251.39912Z " fill="#cfd8dc" fill-opacity="1" transform="matrix(1,0,0,1,-535,-3227)"></path><path id="SvgjsPath1030" d="M554.38334 3257.89555C554.92684 3257.2703300000003 555.87427 3257.20408 556.4994899999999 3257.74757C557.1247099999999 3258.29107 557.1909599999999 3259.2385 556.6474699999999 3259.86372C556.1039699999999 3260.4889399999997 555.1565399999998 3260.55519 554.5313199999999 3260.0117C553.9060999999999 3259.4682 553.83985 3258.52077 554.38334 3257.89555Z " fill="#cfd8dc" fill-opacity="1" transform="matrix(1,0,0,1,-535,-3227)"></path><path id="SvgjsPath1031" d="M558.31969 3253.3673C558.86319 3252.74208 559.8106200000001 3252.6758299999997 560.43584 3253.2193199999997C561.06106 3253.76282 561.12731 3254.7102499999996 560.58382 3255.3354699999995C560.04032 3255.9606899999994 559.0928899999999 3256.0269399999997 558.46767 3255.4834499999997C557.84245 3254.9399499999995 557.7762 3253.99252 558.31969 3253.3673Z " fill="#cfd8dc" fill-opacity="1" transform="matrix(1,0,0,1,-535,-3227)"></path><path id="SvgjsPath1032" d="M556.64747 3259.86373C557.19097 3259.23851 558.1384 3259.17226 558.76362 3259.71575C559.38884 3260.25925 559.4550899999999 3261.20668 558.9115999999999 3261.8318999999997C558.3680999999999 3262.4571199999996 557.4206699999999 3262.52337 556.79545 3261.97988C556.17023 3261.4363799999996 556.10398 3260.48895 556.64747 3259.86373Z " fill="#cfd8dc" fill-opacity="1" transform="matrix(1,0,0,1,-535,-3227)"></path><path id="SvgjsPath1033" d="M560.58382 3255.33547C561.1273199999999 3254.71025 562.07475 3254.644 562.6999699999999 3255.18749C563.3251899999999 3255.73099 563.3914399999999 3256.6784199999997 562.8479499999999 3257.3036399999996C562.3044499999999 3257.9288599999995 561.3570199999998 3257.99511 560.7317999999999 3257.45162C560.1065799999999 3256.9081199999996 560.0403299999999 3255.96069 560.58382 3255.33547Z " fill="#cfd8dc" fill-opacity="1" transform="matrix(1,0,0,1,-535,-3227)"></path><path id="SvgjsPath1034" d="M558.91159 3261.83191C559.45509 3261.20669 560.4025200000001 3261.1404399999997 561.02774 3261.6839299999997C561.65296 3262.22743 561.71921 3263.1748599999996 561.17572 3263.8000799999995C560.63222 3264.4252999999994 559.6847899999999 3264.4915499999997 559.05957 3263.9480599999997C558.43435 3263.4045599999995 558.3681 3262.45713 558.91159 3261.83191Z " fill="#cfd8dc" fill-opacity="1" transform="matrix(1,0,0,1,-535,-3227)"></path><path id="SvgjsPath1035" d="M562.84795 3257.30365C563.39145 3256.67843 564.33888 3256.6121799999996 564.9640999999999 3257.1556699999996C565.5893199999999 3257.69917 565.6555699999999 3258.6465999999996 565.1120799999999 3259.2718199999995C564.5685799999999 3259.8970399999994 563.6211499999998 3259.9632899999997 562.9959299999999 3259.4197999999997C562.3707099999999 3258.8762999999994 562.30446 3257.9288699999997 562.84795 3257.30365Z " fill="#cfd8dc" fill-opacity="1" transform="matrix(1,0,0,1,-535,-3227)"></path><path id="SvgjsPath1036" d="M538.23848 3239.88601C538.78198 3239.2607900000003 539.72941 3239.19454 540.3546299999999 3239.73803C540.9798499999999 3240.28153 541.0460999999999 3241.22896 540.5026099999999 3241.85418C539.9591099999999 3242.4793999999997 539.0116799999998 3242.54565 538.3864599999999 3242.00216C537.7612399999999 3241.45866 537.69499 3240.51123 538.23848 3239.88601Z " fill="#cfd8dc" fill-opacity="1" transform="matrix(1,0,0,1,-535,-3227)"></path><path id="SvgjsPath1037" d="M536.27031 3242.15014C536.81381 3241.5249200000003 537.76124 3241.45867 538.3864599999999 3242.00216C539.01168 3242.54566 539.0779299999999 3243.49309 538.5344399999999 3244.11831C537.9909399999999 3244.7435299999997 537.0435099999999 3244.80978 536.41829 3244.26629C535.79307 3243.72279 535.72682 3242.77536 536.27031 3242.15014Z " fill="#cfd8dc" fill-opacity="1" transform="matrix(1,0,0,1,-535,-3227)"></path><path id="SvgjsPath1038" d="M571.37672 3247.49243C572.64488 3246.03358 574.85556 3245.8789899999997 576.31441 3247.14715C577.7732599999999 3248.41531 577.9278499999999 3250.62599 576.65969 3252.08484C575.39153 3253.54369 573.18085 3253.69828 571.722 3252.43012C570.26315 3251.16196 570.10856 3248.9512799999998 571.37672 3247.49243Z " fill="#cfd8dc" fill-opacity="1" transform="matrix(1,0,0,1,-535,-3227)"></path><path id="SvgjsPath1039" d="M570.73781 3252.95259C570.31547 3252.3867 570.31962 3251.63505 570.7224299999999 3251.1106999999997C570.09903 3250.9132899999995 569.6520699999999 3250.2994999999996 569.6818199999999 3249.6098599999996C569.7135399999999 3248.9484299999995 570.1501399999999 3248.4004499999996 570.7478899999999 3248.2310599999996C570.4403799999999 3247.6854999999996 570.4907999999999 3246.9873099999995 570.9237999999999 3246.4892099999997C571.3764799999999 3245.9684599999996 572.1182699999999 3245.83153 572.7203599999999 3246.12967C572.7868599999999 3245.4587199999996 573.3015399999999 3244.91237 573.9954299999999 3244.80005C574.66865 3244.69627 575.33309 3245.0751 575.5946799999999 3245.6735C576.0805099999999 3245.2213199999997 576.8393599999999 3245.12572 577.42473 3245.48882C578.0242099999999 3245.85094 578.27203 3246.55662 578.0831499999999 3247.20069C578.7471999999999 3247.16843 579.37785 3247.5709 579.60204 3248.2427900000002C579.8177 3248.8940100000004 579.56223 3249.59945 579.0065 3249.96437C579.5383999999999 3250.37374 579.76555 3251.0879600000003 579.4985899999999 3251.7304C579.4985899999999 3251.7304 579.4985899999999 3251.7304 579.50515 3251.72285C579.24672 3252.38596 578.59125 3252.74368 577.9268599999999 3252.66964C578.07854 3253.3182500000003 577.7873099999999 3254.0190900000002 577.17121 3254.33153C576.5560899999999 3254.65808 575.8237799999999 3254.52499 575.35749 3254.04015C575.0508199999999 3254.62157 574.38682 3254.9586299999996 573.70339 3254.8150299999998C573.01996 3254.6714399999996 572.55332 3254.08029 572.50695 3253.4172299999996C571.9836799999999 3253.6381199999996 571.3812899999999 3253.5384699999995 570.9435599999999 3253.1579599999995C570.8680899999999 3253.0923499999994 570.80017 3253.0333099999993 570.7378199999999 3252.9526099999994ZM573.13158 3251.09818L573.12502 3251.1057299999998C573.3271599999999 3251.36095 573.42498 3251.64473 573.4457 3251.9409899999996C573.71439 3251.8300499999996 574.02377 3251.7942399999997 574.34104 3251.8712899999996C574.64322 3251.9352199999994 574.91654 3252.0933199999995 575.11573 3252.3062099999997C575.2466 3252.04897 575.46408 3251.81402 575.75147 3251.6663299999996C576.0313100000001 3251.5120799999995 576.34069 3251.4762699999997 576.6333500000001 3251.5054299999997C576.56375 3251.2196799999997 576.5768200000001 3250.8997899999995 576.70473 3250.60022C576.82608 3250.3082 577.02191 3250.0676799999997 577.26598 3249.90885C577.03399 3249.73369 576.8394000000001 3249.48503 576.74059 3249.18714C576.64835 3248.8817 576.64075 3248.57035 576.71978 3248.28129C576.42352 3248.30201 576.12134 3248.23808 575.85458 3248.0724299999997C575.58027 3247.9002299999997 575.3791100000001 3247.6591099999996 575.2540700000001 3247.3914099999997C575.0411700000001 3247.59059 574.7679 3247.7372899999996 574.4595 3247.7872099999995C574.1435600000001 3247.8305699999996 573.83482 3247.7741899999996 573.56347 3247.6443099999997C573.5343200000001 3247.9369699999997 573.40641 3248.23654 573.20303 3248.4705C573.00621 3248.69691 572.7687 3248.8482 572.5046 3248.92337C572.64933 3249.16843 572.71794 3249.44008 572.71044 3249.73831C572.6832599999999 3250.0591900000004 572.57602 3250.3502200000003 572.3942999999999 3250.58975C572.5826299999999 3250.64746 572.7663799999999 3250.74094 572.9248699999999 3250.87871C573.0003399999999 3250.94432 573.0692499999999 3251.01747 573.1315999999999 3251.0981699999998Z " fill="#cfd8dc" fill-opacity="1" transform="matrix(1,0,0,1,-535,-3227)"></path></svg>