<svg id="SvgjsSvg1055" xmlns="http://www.w3.org/2000/svg" version="1.1" xmlns:xlink="http://www.w3.org/1999/xlink" xmlns:svgjs="http://svgjs.com/svgjs" width="51" height="39" viewBox="0 0 51 39"><title>Shape</title><desc>Created with Avocode.</desc><defs id="SvgjsDefs1056"></defs><path id="SvgjsPath1057" d="M1089.58 1311.1L1065.58 1323.1C1065.23 1323.27 1065 1323.62 1065 1324.01C1065 1324.4 1065.23 1324.75 1065.58 1324.91L1069.01 1326.63L1069.01 1341.2C1067.86 1341.6100000000001 1067.01 1342.72 1067.01 1344.01C1067.01 1344.59 1067.21 1345.03 1067.42 1345.51C1067.63 1345.99 1067.88 1346.46 1068.14 1346.91C1068.66 1347.8200000000002 1069.2 1348.5700000000002 1069.2 1348.5700000000002L1070.01 1349.7600000000002L1070.83 1348.5700000000002C1070.83 1348.5700000000002 1071.37 1347.8200000000002 1071.8899999999999 1346.91C1072.1499999999999 1346.46 1072.3999999999999 1345.99 1072.61 1345.51C1072.82 1345.03 1073.01 1344.59 1073.01 1344.01C1073.01 1342.72 1072.17 1341.61 1071.01 1341.2L1071.01 1327.63L1075.01 1329.63L1075.01 1333.0100000000002C1075.01 1333.6200000000001 1075.42 1334.0000000000002 1075.73 1334.2300000000002C1076.05 1334.4500000000003 1076.39 1334.5900000000001 1076.8 1334.7300000000002C1077.61 1335.0000000000002 1078.68 1335.2300000000002 1079.98 1335.4100000000003C1082.59 1335.7900000000004 1086.1100000000001 1336.0100000000002 1090.01 1336.0100000000002C1093.92 1336.0100000000002 1097.44 1335.7900000000002 1100.05 1335.4100000000003C1101.35 1335.2300000000002 1102.4199999999998 1335.0000000000002 1103.23 1334.7300000000002C1103.64 1334.5900000000001 1103.98 1334.4500000000003 1104.3 1334.2300000000002C1104.61 1334.0000000000002 1105.01 1333.6200000000003 1105.01 1333.0100000000002L1105.01 1329.63L1114.45 1324.91C1114.8 1324.75 1115.03 1324.4 1115.03 1324.01C1115.03 1323.62 1114.8 1323.27 1114.45 1323.1L1090.45 1311.1C1090.28 1311.02 1090.0800000000002 1310.98 1089.89 1311.01C1089.7800000000002 1311.02 1089.68 1311.05 1089.5800000000002 1311.1ZM1090.01 1313.13L1111.76 1324.0100000000002L1105.01 1327.38L1105.01 1326.0100000000002C1105.01 1325.3900000000003 1104.61 1325.0100000000002 1104.3 1324.7900000000002C1103.98 1324.5700000000002 1103.6399999999999 1324.4300000000003 1103.23 1324.2900000000002C1102.42 1324.0100000000002 1101.35 1323.7900000000002 1100.05 1323.6000000000001C1097.44 1323.2300000000002 1093.8999999999999 1323.0100000000002 1090.01 1323.0100000000002C1086.1299999999999 1323.0100000000002 1082.59 1323.2300000000002 1079.98 1323.6000000000001C1078.68 1323.7900000000002 1077.6100000000001 1324.0100000000002 1076.8 1324.2900000000002C1076.3899999999999 1324.4300000000003 1076.05 1324.5700000000002 1075.73 1324.7900000000002C1075.42 1325.0100000000002 1075.01 1325.39 1075.01 1326.0100000000002L1075.01 1327.38L1068.26 1324.0100000000002ZM1090.01 1325.01C1093.83 1325.01 1097.3 1325.22 1099.76 1325.57C1101 1325.75 1101.97 1325.96 1102.58 1326.1599999999999C1102.8 1326.2399999999998 1102.9199999999998 1326.3 1103.01 1326.35L1103.01 1331.23C1102.23 1330.98 1101.25 1330.77 1100.05 1330.6C1097.44 1330.23 1093.9199999999998 1330.01 1090.01 1330.01C1086.11 1330.01 1082.59 1330.23 1079.98 1330.6C1078.78 1330.77 1077.8 1330.98 1077.01 1331.23L1077.01 1326.35C1077.11 1326.3 1077.23 1326.24 1077.45 1326.1599999999999C1078.06 1325.9599999999998 1079.03 1325.7499999999998 1080.26 1325.57C1082.73 1325.22 1086.2 1325.01 1090.01 1325.01ZM1090.01 1332.01C1093.84 1332.01 1097.3 1332.22 1099.76 1332.57C1100.67 1332.7 1101.27 1332.86 1101.86 1333.01C1101.27 1333.16 1100.6699999999998 1333.32 1099.76 1333.45C1097.3 1333.8 1093.84 1334.01 1090.01 1334.01C1086.19 1334.01 1082.73 1333.8 1080.26 1333.45C1079.36 1333.32 1078.76 1333.16 1078.17 1333.01C1078.76 1332.86 1079.3600000000001 1332.7 1080.26 1332.57C1082.73 1332.22 1086.19 1332.01 1090.01 1332.01ZM1070.01 1343.01C1070.57 1343.01 1071.01 1343.45 1071.01 1344.01C1071.01 1343.98 1070.96 1344.32 1070.8 1344.7C1070.6299999999999 1345.07 1070.3799999999999 1345.5 1070.1399999999999 1345.91C1070.07 1346.03 1070.08 1346.02 1070.0099999999998 1346.13C1069.9499999999998 1346.0200000000002 1069.9599999999998 1346.0300000000002 1069.8899999999999 1345.91C1069.6499999999999 1345.5 1069.3999999999999 1345.0700000000002 1069.2299999999998 1344.7C1069.0699999999997 1344.32 1069.0099999999998 1343.98 1069.0099999999998 1344.01C1069.0099999999998 1343.45 1069.4599999999998 1343.01 1070.0099999999998 1343.01Z " fill="#1a416a" fill-opacity="1" transform="matrix(1,0,0,1,-1065,-1311)"></path></svg>