<svg id="SvgjsSvg1040" xmlns="http://www.w3.org/2000/svg" version="1.1" xmlns:xlink="http://www.w3.org/1999/xlink" xmlns:svgjs="http://svgjs.com/svgjs" width="42" height="38" viewBox="0 0 42 38"><title>Shape</title><desc>Created with Avocode.</desc><defs id="SvgjsDefs1041"></defs><path id="SvgjsPath1042" d="M329.77 1093.23C329.79999999999995 1093.23 329.82 1093.23 329.84999999999997 1093.23L341.73999999999995 1093.23C342.19999999999993 1093.24 342.5799999999999 1093.6200000000001 342.5799999999999 1094.09L342.5799999999999 1098.8C344.50999999999993 1097.45 346.8499999999999 1096.6399999999999 349.37999999999994 1096.6399999999999C351.8999999999999 1096.6399999999999 354.23999999999995 1097.4499999999998 356.16999999999996 1098.8L356.16999999999996 1094.09C356.15999999999997 1093.6699999999998 356.44999999999993 1093.31 356.85999999999996 1093.23C356.88999999999993 1093.23 356.90999999999997 1093.23 356.93999999999994 1093.23C356.9699999999999 1093.23 356.98999999999995 1093.23 357.0199999999999 1093.23L368.8999999999999 1093.23C369.36999999999995 1093.24 369.74999999999994 1093.6200000000001 369.74999999999994 1094.09L369.74999999999994 1102.61C369.74999999999994 1103.08 369.36999999999995 1103.4599999999998 368.8999999999999 1103.4599999999998L363.80999999999995 1103.4599999999998L363.80999999999995 1119.6599999999999C363.81999999999994 1119.9599999999998 363.6499999999999 1120.2499999999998 363.38999999999993 1120.3999999999999C363.12999999999994 1120.56 362.79999999999995 1120.56 362.5299999999999 1120.3999999999999C362.2699999999999 1120.2499999999998 362.1099999999999 1119.9599999999998 362.1099999999999 1119.6599999999999L362.1099999999999 1103.4599999999998L360.0999999999999 1103.4599999999998C360.8399999999999 1105.0199999999998 361.25999999999993 1106.7399999999998 361.25999999999993 1108.5799999999997C361.25999999999993 1111.9899999999998 359.8399999999999 1115.0799999999997 357.54999999999995 1117.2599999999998L359.3299999999999 1119.0399999999997C359.5399999999999 1119.2599999999998 359.62999999999994 1119.5799999999997 359.54999999999995 1119.8799999999997C359.46999999999997 1120.1799999999996 359.23999999999995 1120.4099999999996 358.93999999999994 1120.4899999999996C358.63999999999993 1120.5699999999995 358.31999999999994 1120.4899999999996 358.10999999999996 1120.2699999999995L356.16999999999996 1118.3199999999995C354.23999999999995 1119.6799999999994 351.90999999999997 1120.5099999999995 349.37999999999994 1120.5099999999995C346.8399999999999 1120.5099999999995 344.5199999999999 1119.6799999999996 342.5799999999999 1118.3199999999995L340.6499999999999 1120.2699999999995C340.4299999999999 1120.4899999999996 340.1099999999999 1120.5699999999995 339.80999999999995 1120.4899999999996C339.5199999999999 1120.4099999999996 339.28 1120.1799999999996 339.19999999999993 1119.8799999999997C339.11999999999995 1119.5799999999997 339.2099999999999 1119.2599999999998 339.42999999999995 1119.0399999999997L341.2099999999999 1117.2599999999998C338.9099999999999 1115.0799999999997 337.4899999999999 1111.9899999999998 337.4899999999999 1108.5799999999997C337.4899999999999 1106.7399999999998 337.9199999999999 1105.0199999999998 338.6599999999999 1103.4599999999998L336.63999999999993 1103.4599999999998L336.63999999999993 1119.6599999999999C336.6499999999999 1119.9599999999998 336.4799999999999 1120.2499999999998 336.2199999999999 1120.3999999999999C335.9599999999999 1120.56 335.62999999999994 1120.56 335.3599999999999 1120.3999999999999C335.0999999999999 1120.2499999999998 334.9399999999999 1119.9599999999998 334.9399999999999 1119.6599999999999L334.9399999999999 1103.4599999999998L329.8499999999999 1103.4599999999998C329.3799999999999 1103.4599999999998 328.9999999999999 1103.0799999999997 328.9999999999999 1102.61L328.9999999999999 1094.09C328.9899999999999 1093.6699999999998 329.27999999999986 1093.31 329.6899999999999 1093.23C329.71999999999986 1093.23 329.7399999999999 1093.23 329.76999999999987 1093.23ZM339.19 1108.58C339.19 1114.24 343.74 1118.8 349.38 1118.8C355.01 1118.8 359.57 1114.24 359.57 1108.58C359.57 1102.9199999999998 355.01 1098.35 349.38 1098.35C343.74 1098.35 339.19 1102.9199999999998 339.19 1108.58ZM330.54 1083.01C330.68 1082.99 330.83000000000004 1083.01 330.96000000000004 1083.06L334.68000000000006 1084.31C334.9800000000001 1084.04 335.36000000000007 1083.86 335.7900000000001 1083.86C336.61000000000007 1083.86 337.31000000000006 1084.4399999999998 337.4600000000001 1085.2199999999998L341.1500000000001 1086.4699999999998C341.4800000000001 1086.5299999999997 341.7500000000001 1086.7699999999998 341.8300000000001 1087.1C341.9200000000001 1087.4199999999998 341.8000000000001 1087.77 341.5400000000001 1087.98C341.2800000000001 1088.19 340.9200000000001 1088.22 340.62000000000006 1088.07L336.64000000000004 1086.74L336.64000000000004 1092.38L334.94000000000005 1092.38L334.94000000000005 1086.18L330.43000000000006 1084.66C330.06000000000006 1084.5400000000002 329.82000000000005 1084.18 329.8400000000001 1083.7900000000002C329.87000000000006 1083.4 330.1500000000001 1083.0800000000002 330.5400000000001 1083.0100000000002ZM330.7 1101.76L335.61 1101.76C335.72 1101.73 335.84000000000003 1101.73 335.95 1101.76L339.64 1101.76C340.02 1101.21 340.41999999999996 1100.69 340.89 1100.21L340.89 1094.94L339.19 1094.94L339.19 1100.05L337.49 1100.05L337.49 1094.94L334.09000000000003 1094.94L334.09000000000003 1100.05L332.40000000000003 1100.05L332.40000000000003 1094.94L330.70000000000005 1094.94ZM357.87 1100.21C358.33 1100.69 358.74 1101.21 359.11 1101.76L362.78000000000003 1101.76C362.89000000000004 1101.73 363.01000000000005 1101.73 363.12 1101.76L368.06 1101.76L368.06 1094.94L366.36 1094.94L366.36 1100.05L364.66 1100.05L364.66 1094.94L361.26000000000005 1094.94L361.26000000000005 1100.05L359.57000000000005 1100.05L359.57000000000005 1094.94L357.87000000000006 1094.94ZM358.48 1088.97C358.5 1088.97 358.53000000000003 1088.97 358.56 1088.97C358.58 1088.97 358.61 1088.97 358.64 1088.97C358.65999999999997 1088.97 358.69 1088.97 358.71999999999997 1088.97L368.9 1088.97C369.21 1088.97 369.5 1089.13 369.65 1089.4C369.79999999999995 1089.66 369.79999999999995 1089.99 369.65 1090.26C369.5 1090.52 369.21 1090.68 368.9 1090.68L364.65999999999997 1090.68L364.65999999999997 1092.38L362.96 1092.38L362.96 1090.68L358.71999999999997 1090.68C358.24999999999994 1090.74 357.80999999999995 1090.42 357.74999999999994 1089.95C357.67999999999995 1089.47 358.00999999999993 1089.04 358.47999999999996 1088.97ZM358.48 1086.42C358.5 1086.42 358.53000000000003 1086.42 358.56 1086.42C358.58 1086.42 358.61 1086.42 358.64 1086.42C358.65999999999997 1086.42 358.69 1086.42 358.71999999999997 1086.42L368.9 1086.42C369.21 1086.41 369.5 1086.5700000000002 369.65 1086.8400000000001C369.79999999999995 1087.1000000000001 369.79999999999995 1087.43 369.65 1087.7C369.5 1087.96 369.21 1088.13 368.9 1088.1200000000001L358.71999999999997 1088.1200000000001C358.24999999999994 1088.19 357.80999999999995 1087.8600000000001 357.74999999999994 1087.39C357.67999999999995 1086.92 358.00999999999993 1086.48 358.47999999999996 1086.42ZM365.51 1085.56L362.11 1085.56C362.11 1084.62 362.87 1083.86 363.81 1083.86C364.75 1083.86 365.51 1084.62 365.51 1085.56ZM353.62 1110.28C352.68 1110.28 351.92 1111.04 351.92 1111.99C351.92 1112.93 352.68 1113.69 353.62 1113.69C354.56 1113.69 355.32 1112.93 355.32 1111.99C355.32 1111.04 354.56 1110.28 353.62 1110.28Z " fill="#1a416a" fill-opacity="1" transform="matrix(1,0,0,1,-328,-1083)"></path></svg>