<svg id="SvgjsSvg1049" xmlns="http://www.w3.org/2000/svg" version="1.1" xmlns:xlink="http://www.w3.org/1999/xlink" xmlns:svgjs="http://svgjs.com/svgjs" width="41" height="41" viewBox="0 0 41 41"><title>Shape</title><desc>Created with Avocode.</desc><defs id="SvgjsDefs1050"></defs><path id="SvgjsPath1051" d="M335.83 1308C332.03 1308 329 1311.03 329 1314.83L329 1342.1699999999998C329 1345.9699999999998 332.03 1348.9999999999998 335.83 1348.9999999999998L363.16999999999996 1348.9999999999998C366.96999999999997 1348.9999999999998 369.99999999999994 1345.9699999999998 369.99999999999994 1342.1699999999998L369.99999999999994 1318.7399999999998L368.04999999999995 1320.9999999999998L368.04999999999995 1342.1699999999998C368.04999999999995 1344.8999999999999 365.9 1347.05 363.16999999999996 1347.05L335.83 1347.05C333.09999999999997 1347.05 330.95 1344.8999999999999 330.95 1342.1699999999998L330.95 1314.83C330.95 1312.1 333.09999999999997 1309.9499999999998 335.83 1309.9499999999998L361.61 1309.9499999999998L363.17 1307.9999999999998ZM368.78 1312.91L349.26 1335.97L348.62 1336.74L347.85 1336.03L339.16 1327.95L340.5 1326.52L348.43 1333.93L367.32 1311.66Z " fill="#1a416a" fill-opacity="1" transform="matrix(1,0,0,1,-329,-1308)"></path></svg>