<svg id="SvgjsSvg1052" xmlns="http://www.w3.org/2000/svg" version="1.1" xmlns:xlink="http://www.w3.org/1999/xlink" xmlns:svgjs="http://svgjs.com/svgjs" width="42" height="38" viewBox="0 0 42 38"><title>Shape</title><desc>Created with Avocode.</desc><defs id="SvgjsDefs1053"></defs><path id="SvgjsPath1054" d="M700 1311L700 1335L706 1335L706 1342.64L708.44 1340.67L715.5200000000001 1335L730.0000000000001 1335L730.0000000000001 1311ZM703 1314L727 1314L727 1332L714.48 1332L714.0600000000001 1332.33L709.0000000000001 1336.36L709.0000000000001 1332L703.0000000000001 1332ZM742 1317L742 1341L736 1341L736 1348.64L726.48 1341L712.52 1341L716.27 1338L727.52 1338L733 1342.36L733 1338L739 1338L739 1320L733 1320L733 1317Z " fill="#1a416a" fill-opacity="1" transform="matrix(1,0,0,1,-700,-1311)"></path></svg>