<svg id="SvgjsSvg1046" xmlns="http://www.w3.org/2000/svg" version="1.1" xmlns:xlink="http://www.w3.org/1999/xlink" xmlns:svgjs="http://svgjs.com/svgjs" width="42" height="41" viewBox="0 0 42 41"><title>Shape</title><desc>Created with Avocode.</desc><defs id="SvgjsDefs1047"></defs><path id="SvgjsPath1048" d="M1090 1084C1078.48 1084 1069 1092.07 1069 1102.18C1069 1108.03 1072.26 1113.16 1077.16 1116.47C1077.15 1116.66 1077.16 1116.97 1076.9 1117.92C1076.5900000000001 1119.0900000000001 1075.95 1120.74 1074.65 1122.5800000000002L1073.6200000000001 1124.0000000000002L1075.39 1124.0000000000002C1081.0300000000002 1124.0300000000002 1084.26 1120.3700000000001 1084.8100000000002 1119.7400000000002C1086.4800000000002 1120.1100000000001 1088.2000000000003 1120.3600000000001 1090.0000000000002 1120.3600000000001C1101.5200000000002 1120.3600000000001 1111.0000000000002 1112.2900000000002 1111.0000000000002 1102.18C1111.0000000000002 1092.0700000000002 1101.5200000000002 1084 1090.0000000000002 1084ZM1090 1085.82C1100.67 1085.82 1109.17 1093.21 1109.17 1102.1799999999998C1109.17 1111.1499999999999 1100.67 1118.5499999999997 1090 1118.5499999999997C1088.18 1118.5499999999997 1086.42 1118.3299999999997 1084.75 1117.9199999999996L1084.18 1117.7799999999995L1083.8100000000002 1118.2299999999996C1083.8100000000002 1118.2299999999996 1081.2500000000002 1121.1199999999997 1077.16 1121.8699999999997C1077.88 1120.5599999999997 1078.42 1119.3099999999997 1078.67 1118.3799999999997C1079.04 1117.0199999999998 1079.04 1116.0999999999997 1079.04 1116.0999999999997L1079.04 1115.6199999999997L1078.62 1115.3399999999997C1073.86 1112.3299999999997 1070.83 1107.5599999999997 1070.83 1102.1799999999996C1070.83 1093.2099999999996 1079.33 1085.8199999999997 1090 1085.8199999999997ZM1083.61 1095.82C1082.11 1095.82 1080.87 1097.05 1080.87 1098.55L1080.87 1105.82C1080.87 1107.31 1082.11 1108.55 1083.61 1108.55L1092.74 1108.55C1094.24 1108.55 1095.48 1107.31 1095.48 1105.82L1095.48 1105.48L1099.47 1107.52C1099.6000000000001 1107.59 1099.73 1107.6299999999999 1099.8700000000001 1107.6399999999999L1100.0400000000002 1107.6399999999999C1100.5500000000002 1107.6399999999999 1100.9600000000003 1107.2299999999998 1100.9600000000003 1106.7299999999998L1100.9600000000003 1097.6399999999999C1100.9600000000003 1097.1299999999999 1100.5500000000002 1096.7299999999998 1100.0400000000002 1096.7299999999998L1099.8700000000001 1096.7299999999998C1099.8400000000001 1096.7299999999998 1099.8200000000002 1096.7299999999998 1099.7900000000002 1096.7299999999998C1099.6800000000003 1096.7499999999998 1099.5700000000002 1096.7799999999997 1099.4700000000003 1096.8399999999997L1095.4800000000002 1098.8899999999996L1095.4800000000002 1098.5499999999997C1095.4800000000002 1097.0499999999997 1094.2400000000002 1095.8199999999997 1092.7400000000002 1095.8199999999997ZM1083.61 1097.64L1092.74 1097.64C1093.26 1097.64 1093.65 1098.0300000000002 1093.65 1098.5500000000002L1093.65 1100.3100000000002C1093.65 1100.3300000000002 1093.65 1100.3400000000001 1093.65 1100.3600000000001L1093.65 1104.0000000000002C1093.65 1104.0300000000002 1093.65 1104.0600000000002 1093.65 1104.0900000000001L1093.65 1105.8200000000002C1093.65 1106.3300000000002 1093.26 1106.7300000000002 1092.74 1106.7300000000002L1083.61 1106.7300000000002C1083.09 1106.7300000000002 1082.6999999999998 1106.3300000000002 1082.6999999999998 1105.8200000000002L1082.6999999999998 1098.5500000000002C1082.6999999999998 1098.0300000000002 1083.09 1097.64 1083.61 1097.64ZM1099.13 1099.03L1099.13 1105.34L1095.48 1103.4599999999998L1095.48 1100.8999999999999Z " fill="#1a416a" fill-opacity="1" transform="matrix(1,0,0,1,-1069,-1084)"></path></svg>