<?xml version="1.0" encoding="UTF-8" standalone="no"?>
<svg width="116px" height="115px" viewBox="0 0 116 115" version="1.1" xmlns="http://www.w3.org/2000/svg" xmlns:xlink="http://www.w3.org/1999/xlink">
    <g id="Page-1" stroke="none" stroke-width="1" fill="none" fill-rule="evenodd">
        <g id="Jediup-ME" transform="translate(-464.000000, -3227.000000)">
            <g id="Price" transform="translate(0.000000, 3075.000000)">
                <g transform="translate(449.000000, 142.800000)">
                    <ellipse id="Oval-2" fill="#FFC66D" cx="65.5" cy="73.9140845" rx="44.5" ry="44.7507042"></ellipse>
                    <text id="180$" transform="translate(60.000000, 59.169014) rotate(20.000000) translate(-60.000000, -59.169014) " font-family="RobotoMono-Bold, Roboto Mono" font-size="44" font-weight="bold" fill="#3E3E3E">
                        <tspan x="7" y="76.1690141">180$</tspan>
                    </text>
                    <text id="260$" transform="translate(77.500000, 103.484507) rotate(20.000000) translate(-77.500000, -103.484507) " font-family="RobotoMono-Bold, Roboto Mono" font-size="26" font-weight="bold" fill="#787878">
                        <tspan x="46" y="113.484507">260$</tspan>
                    </text>
                    <path d="M45.8191334,94.2109742 L107.838846,116.911477" id="Line" stroke="#FF3D00" stroke-width="2" stroke-linecap="square"></path>
                    <g id="crs" transform="translate(111.276615, 26.449998) rotate(41.000000) translate(-111.276615, -26.449998) translate(91.776615, 8.449998)">
                        <g id="Group" transform="translate(0.000000, -0.000000)">
                            <path d="M27,10.056338 C27.479,9.57463944 29.109,10.0191296 30.676,10.6104423 C33.574,12.291862 36,14.0788732 36,14.0788732 C36,14.0788732 31,-4.26325641e-14 21,-4.26325641e-14 C2,-4.26325641e-14 2,30.1690141 2,30.1690141 L2.318,29.8321268 C2.111,30.6768592 2,31.1746479 2,31.1746479 L31,29.1633803 C31,20.1126761 23.838,13.2361521 27,10.056338 Z" id="Shape" fill="#FF3D00"></path>
                            <path d="M27,10.056338 C27.48,9.5736338 29.113,10.0211408 30.683,10.6144648 C26.474,8.17479718 21.272,5.96944225 21.02,9.77375493 C21.231,18.1999606 25,20.3660958 25,29.1633803 C25.262,31.006707 26.213,32.2255352 27.469,33.0260197 C29.622,32.3421887 31,31.1354282 31,29.1633803 C31,20.1126761 23.838,13.2361521 27,10.056338 Z" id="Shape" fill="#DD2C00"></path>
                            <g transform="translate(0.000000, 8.045070)" fill="#CFD8DC">
                                <rect id="Rectangle-path" x="1" y="18.1014085" width="31" height="7.03943662"></rect>
                                <ellipse id="Oval" cx="4.5" cy="18.6042254" rx="1.5" ry="1.5084507"></ellipse>
                                <ellipse id="Oval" cx="1.5" cy="18.6042254" rx="1.5" ry="1.5084507"></ellipse>
                                <ellipse id="Oval" cx="7.5" cy="18.6042254" rx="1.5" ry="1.5084507"></ellipse>
                                <ellipse id="Oval" cx="10.5" cy="18.6042254" rx="1.5" ry="1.5084507"></ellipse>
                                <ellipse id="Oval" cx="13.5" cy="18.6042254" rx="1.5" ry="1.5084507"></ellipse>
                                <ellipse id="Oval" cx="4.5" cy="24.6380282" rx="1.5" ry="1.5084507"></ellipse>
                                <ellipse id="Oval" cx="7.5" cy="24.6380282" rx="1.5" ry="1.5084507"></ellipse>
                                <ellipse id="Oval" cx="10.5" cy="24.6380282" rx="1.5" ry="1.5084507"></ellipse>
                                <ellipse id="Oval" cx="13.5" cy="24.6380282" rx="1.5" ry="1.5084507"></ellipse>
                                <ellipse id="Oval" cx="16.5" cy="18.6042254" rx="1.5" ry="1.5084507"></ellipse>
                                <ellipse id="Oval" cx="16.5" cy="24.6380282" rx="1.5" ry="1.5084507"></ellipse>
                                <ellipse id="Oval" cx="19.5" cy="24.6380282" rx="1.5" ry="1.5084507"></ellipse>
                                <ellipse id="Oval" cx="31.5" cy="21.6211268" rx="1.5" ry="1.5084507"></ellipse>
                                <ellipse id="Oval" cx="19.5" cy="18.6042254" rx="1.5" ry="1.5084507"></ellipse>
                                <ellipse id="Oval" cx="22.5" cy="24.6380282" rx="1.5" ry="1.5084507"></ellipse>
                                <ellipse id="Oval" cx="22.5" cy="18.6042254" rx="1.5" ry="1.5084507"></ellipse>
                                <ellipse id="Oval" cx="25.5" cy="24.6380282" rx="1.5" ry="1.5084507"></ellipse>
                                <ellipse id="Oval" cx="25.5" cy="18.6042254" rx="1.5" ry="1.5084507"></ellipse>
                                <ellipse id="Oval" cx="28.5" cy="24.6380282" rx="1.5" ry="1.5084507"></ellipse>
                                <ellipse id="Oval" cx="28.5" cy="18.6042254" rx="1.5" ry="1.5084507"></ellipse>
                                <ellipse id="Oval" cx="31.5" cy="24.6380282" rx="1.5" ry="1.5084507"></ellipse>
                                <ellipse id="Oval" cx="31.5" cy="18.6042254" rx="1.5" ry="1.5084507"></ellipse>
                                <ellipse id="Oval" cx="1.5" cy="21.6211268" rx="1.5" ry="1.5084507"></ellipse>
                                <ellipse id="Oval" cx="1.5" cy="24.6380282" rx="1.5" ry="1.5084507"></ellipse>
                                <ellipse id="Oval" cx="34.1" cy="5.04325352" rx="3.589" ry="3.58206761"></ellipse>
                                <path d="M33.1,10.0362254 L33.1,10.0362254 L33.1,10.0362254 C32.406,9.89543662 31.921,9.32121972 31.881,8.65951268 L31.881,8.65951268 C31.277,8.92097746 30.541,8.75001972 30.108,8.20697746 L30.108,8.20697746 L30.108,8.20697746 L30.108,8.20697746 C29.695,7.69309859 29.675,6.99016056 30.007,6.46723099 L30.007,6.46723099 C29.423,6.25604789 29,5.70395493 29,5.04023662 L29,5.04023662 C29,4.34836056 29.473,3.76308169 30.117,3.59413521 L30.117,3.59413521 C29.734,3.04003099 29.755,2.28580563 30.209,1.75382535 L30.209,1.75382535 C30.651,1.23089577 31.397,1.08105634 31.992,1.36162817 L31.992,1.36162817 C32.062,0.697909859 32.566,0.13475493 33.251,0.0231295775 L33.251,0.0231295775 C33.937,-0.0975464789 34.592,0.274538028 34.874,0.879929577 L34.874,0.879929577 C35.347,0.416332394 36.093,0.30671831 36.697,0.667740845 L36.697,0.667740845 C37.291,1.01971268 37.563,1.72466197 37.382,2.35720563 L37.382,2.35720563 C38.047,2.31698028 38.693,2.70917746 38.914,3.37189014 L38.914,3.37189014 C38.914,3.37189014 38.914,3.37189014 38.914,3.3618338 L38.914,3.3618338 C39.145,4.02555211 38.893,4.72949577 38.339,5.11163662 L38.339,5.11163662 C38.884,5.5038338 39.115,6.21682817 38.863,6.8604338 L38.863,6.8604338 C38.611,7.51309014 37.967,7.89523099 37.301,7.82584225 L37.301,7.82584225 C37.452,8.46944789 37.169,9.16333521 36.556,9.5052507 L36.556,9.5052507 C35.951,9.83610423 35.205,9.7043662 34.743,9.23272394 L34.743,9.23272394 C34.491,9.73554085 33.967,10.0573437 33.391,10.0573437 L33.391,10.0573437 C33.292,10.056338 33.201,10.056338 33.1,10.0362254 Z M33.685,7.07061127 L33.685,7.08066761 C34.007,7.14100563 34.269,7.2918507 34.481,7.5030338 L34.481,7.5030338 C34.612,7.24156901 34.824,7.01027324 35.106,6.85942817 L35.106,6.85942817 C35.378,6.7085831 35.69,6.64824507 35.982,6.67841408 L35.982,6.67841408 C35.912,6.39784225 35.922,6.08408451 36.044,5.7834 L36.044,5.7834 C36.154,5.48170986 36.356,5.25041408 36.598,5.07945634 L36.598,5.07945634 C36.356,4.90849859 36.164,4.65709014 36.064,4.3554 L36.064,4.3554 C35.963,4.05370986 35.953,3.74196338 36.034,3.46038592 L36.034,3.46038592 C35.741,3.48049859 35.43,3.42016056 35.157,3.25925915 L35.157,3.25925915 C34.886,3.08930704 34.683,2.85801127 34.553,2.58649014 L34.553,2.58649014 C34.342,2.79767324 34.071,2.94751268 33.757,2.99678873 L33.757,2.99678873 C33.435,3.04908169 33.132,2.99678873 32.861,2.87711831 L32.861,2.87711831 C32.831,3.16875211 32.719,3.46038592 32.519,3.70173803 L32.519,3.70173803 C32.307,3.94309014 32.044,4.10298592 31.752,4.18343662 L31.752,4.18343662 C31.923,4.4237831 32.024,4.72647887 32.024,5.03822535 L32.024,5.03822535 C32.024,5.33890986 31.943,5.61143662 31.792,5.84172676 L31.792,5.84172676 C32.055,5.93323944 32.286,6.09313521 32.478,6.32543662 L32.478,6.32543662 C32.669,6.57583944 32.781,6.86747324 32.8,7.17016901 L32.8,7.17016901 C32.982,7.08871268 33.183,7.03943662 33.394,7.03943662 L33.394,7.03943662 C33.493,7.04144789 33.594,7.05150423 33.685,7.07061127 Z" id="Shape"></path>
                            </g>
                        </g>
                    </g>
                </g>
            </g>
        </g>
    </g>
</svg>
