<svg id="SvgjsSvg1000" xmlns="http://www.w3.org/2000/svg" version="1.1" xmlns:xlink="http://www.w3.org/1999/xlink" xmlns:svgjs="http://svgjs.com/svgjs" width="25" height="25" viewBox="0 0 25 25"><title>logo</title><desc>Created with Avocode.</desc><defs id="SvgjsDefs1001"></defs><path id="SvgjsPath1007" d="M230 20C230 13.92487 234.92487 9 241 9C247.07513 9 252 13.92487 252 20C252 26.07513 247.07513 31 241 31C234.92487 31 230 26.07513 230 20Z " fill-opacity="0" fill="#ffffff" stroke-dasharray="0" stroke-linejoin="miter" stroke-linecap="butt" stroke-opacity="1" stroke="#4c4c4c" stroke-miterlimit="50" stroke-width="3" transform="matrix(1,0,0,1,-228.5,-7.5)"></path><path id="SvgjsPath1008" d="M241 15C241 12.238579999999999 243.23858 10 246 10C248.76142 10 251 12.238579999999999 251 15C251 17.76142 248.76142 20 246 20C243.23858 20 241 17.76142 241 15Z " fill="#4c4c4c" fill-opacity="1" transform="matrix(1,0,0,1,-228.5,-7.5)"></path></svg>